<svg width="1440" height="1024" viewBox="0 0 1440 1024" fill="none" xmlns="http://www.w3.org/2000/svg">
<path d="M1182.97 1536.03C1182.97 1534.25 1181.83 1528.84 1180.44 1524.02C1177.16 1512.62 1169.45 1505 1157.97 1501.81C1153.28 1500.5 1149.63 1498.59 1149.63 1497.44C1149.63 1496.32 1154.16 1493.71 1159.71 1491.64C1174.71 1486.04 1178.17 1481.94 1181.94 1465.35C1183.04 1460.49 1184.69 1456.27 1185.61 1455.96C1187.38 1455.37 1190.72 1463.39 1190.72 1468.24C1190.72 1473.55 1198.35 1486.42 1202.9 1488.77C1205.33 1490.02 1210.56 1491.87 1214.52 1492.87C1224.79 1495.45 1224.47 1499.58 1213.77 1502.76C1201.05 1506.54 1195.98 1511.38 1192.32 1523.21C1190.59 1528.82 1189.17 1534.73 1189.17 1536.35C1189.17 1538.25 1188.08 1539.28 1186.07 1539.28C1183.95 1539.28 1182.97 1538.25 1182.97 1536.03ZM1191.68 1501.89L1196.67 1497.06L1191.42 1491.81C1185.61 1486 1184.52 1485.52 1184.52 1488.77C1184.52 1489.99 1182.85 1492.3 1180.81 1493.9L1177.11 1496.81L1180.81 1500.38C1182.85 1502.34 1184.52 1504.57 1184.52 1505.33C1184.52 1507.81 1186.6 1506.81 1191.68 1501.89ZM430.894 1481.04C417.417 1478.14 400.592 1469.62 392.548 1461.64C380.935 1450.11 379.721 1444.35 379.721 1400.72C379.721 1356.56 380.692 1351.43 391.27 1339.67C399.089 1330.97 411.248 1324 427.017 1319.17C441.104 1314.86 471.422 1314.31 487.105 1318.08C507.936 1323.09 526.144 1335.29 533.753 1349.33C536.973 1355.27 537.114 1357.35 537.114 1398.95C537.114 1440.77 536.988 1442.6 533.69 1448.77C526.314 1462.56 504.958 1476.01 482.535 1480.98C468.961 1484 444.726 1484.02 430.894 1481.04ZM477.746 1467.26C490.595 1464.97 502.831 1459.93 511.498 1453.36C518.361 1448.15 525.484 1437.61 525.484 1432.65C525.484 1428.83 525.483 1428.83 521.22 1431.65C497.532 1447.34 481.127 1451.84 452.857 1450.44C442.909 1449.95 430.932 1448.39 426.242 1446.99C417.244 1444.29 400.143 1435.43 396.083 1431.37C393.91 1429.2 393.678 1429.28 393.678 1432.23C393.678 1437.24 398.033 1446.53 402.676 1451.43C416.087 1465.57 448.691 1472.44 477.746 1467.26ZM476.378 1435.35C495.787 1432.54 513.348 1422.91 520.977 1410.88C523.456 1406.97 525.484 1401.82 525.484 1399.44V1395.12L517.797 1400.94C508.549 1407.94 492.273 1414.51 478.776 1416.7C449.493 1421.46 415.565 1415.12 400.286 1402.04C396.807 1399.06 393.641 1396.62 393.252 1396.62C391.846 1396.62 394.778 1408.63 396.916 1411.64C410.33 1430.46 442.92 1440.18 476.378 1435.35ZM478.837 1402.6C508.473 1397.45 528.782 1378.44 523.819 1360.49C518.785 1342.29 492.414 1329.74 459.302 1329.8C426.986 1329.85 404.51 1339.58 396.635 1356.92C391.228 1368.83 393.383 1378 403.721 1387.08C420.107 1401.47 449.928 1407.63 478.837 1402.6ZM442.524 1390.95C432.576 1387.84 430.631 1386.17 431.203 1381.25C431.786 1376.23 436.78 1375.22 444.035 1378.67C449.889 1381.45 458.262 1381.84 464.132 1379.6C470.341 1377.24 468.848 1375.3 459.969 1374.18C439.202 1371.57 430.894 1366.84 430.894 1357.65C430.894 1352.45 437.893 1346.23 445.301 1344.84C448.23 1344.29 451.877 1342.46 453.406 1340.77C456.847 1336.97 459.793 1336.85 461.715 1340.44C462.523 1341.95 466.532 1344.08 470.625 1345.17C479.794 1347.63 482.066 1349.42 482.066 1354.22C482.066 1359.4 479.299 1359.98 468.269 1357.12C460.68 1355.16 457.444 1355 452.373 1356.37C443.806 1358.67 446.358 1360.58 459.581 1361.76C479.458 1363.53 487.18 1369.54 483.583 1380.44C480.257 1390.52 458.729 1396.03 442.524 1390.95ZM164.985 1456.78C160.492 1438.3 153.435 1430.22 138.27 1426.19C134.682 1425.23 131.365 1423.83 130.9 1423.08C129.327 1420.54 131.925 1416.78 135.269 1416.77C140.224 1416.74 153.574 1410.01 157.834 1405.38C160.097 1402.93 162.904 1396.28 164.96 1388.51C168.962 1373.39 172.081 1371.58 173.772 1383.4C176.507 1402.52 183.884 1411.22 201.594 1416.19C214.461 1419.8 214.064 1423.17 200.232 1427.75C183.225 1433.38 177.98 1440.25 172.813 1463.69C171.109 1471.42 167.841 1468.54 164.985 1456.78ZM173.202 1429.96C174.174 1427.82 177.036 1424.82 179.562 1423.29L184.154 1420.49L179.6 1418.77C177.096 1417.83 173.859 1414.99 172.407 1412.46L169.768 1407.86L165.413 1413.87C163.018 1417.18 160.33 1419.88 159.44 1419.88C158.55 1419.88 160.446 1423.02 163.654 1426.86C166.862 1430.7 169.925 1433.84 170.461 1433.84C170.996 1433.84 172.23 1432.09 173.202 1429.96ZM1353.54 1440.49C1348.41 1438.61 1345.79 1434.79 1345.79 1429.22C1345.79 1419.23 1355.68 1413.72 1364.89 1418.56C1369.5 1420.99 1370.55 1422.89 1370.58 1428.87C1370.62 1437.73 1362.01 1443.61 1353.54 1440.49ZM680.378 1408.25C671.48 1403.42 670.884 1390.51 679.234 1383.48C686.656 1377.24 697.268 1379.16 701.602 1387.54C704.432 1393.02 704.396 1397.2 701.469 1402.86C697.467 1410.6 688.778 1412.82 680.378 1408.25ZM1017.92 1373.53C1017.39 1372.67 1015.58 1366.59 1013.9 1360.02C1009.29 1342 1002 1334.56 983.791 1329.31C976.847 1327.3 974.069 1321.57 979.352 1320.15C993.957 1316.22 997.778 1314.67 1002.45 1310.82C1009.4 1305.09 1013.78 1296.36 1015.7 1284.43C1016.54 1279.19 1017.93 1274.2 1018.79 1273.34C1021.25 1270.9 1024.4 1276.45 1025.63 1285.41C1028.57 1306.73 1036.8 1314.76 1060.95 1319.83C1064.32 1320.54 1065.21 1321.51 1064.83 1324.07C1064.45 1326.61 1062.37 1327.95 1055.81 1329.85C1037.61 1335.1 1031.18 1342.22 1026.64 1362.14C1024.74 1370.49 1023.15 1374.26 1021.4 1374.6C1020.02 1374.87 1018.45 1374.38 1017.92 1373.53ZM1030.92 1321.98C1028.7 1320.59 1025.47 1317.53 1023.76 1315.18L1020.65 1310.91L1013.71 1317.85L1006.77 1324.79L1011.18 1327.32C1013.6 1328.71 1016.69 1331.79 1018.03 1334.16L1020.47 1338.47L1027.72 1331.49L1034.97 1324.52L1030.92 1321.98ZM1300.18 1267.49C1295.47 1263.96 1298 1261.29 1311.2 1255.9C1317.98 1253.12 1326.54 1248.28 1330.22 1245.13C1336.74 1239.54 1342.58 1229.63 1342.65 1224.03C1342.68 1221.57 1342.07 1221.71 1337.54 1225.16C1323.94 1235.54 1298.61 1243.41 1280.09 1243.03C1272.35 1242.87 1267.49 1243.59 1263.9 1245.44C1257.67 1248.64 1252.33 1247.84 1239.55 1241.8C1227.19 1235.95 1212.04 1223.15 1206.68 1214.03L1202.35 1206.67V1176.43C1202.35 1146.25 1202.36 1146.17 1206.6 1138.95C1214.7 1125.19 1229.02 1115.68 1249.63 1110.41C1263.84 1106.77 1298.88 1107.99 1313.34 1112.63C1332.65 1118.84 1348.03 1131.43 1352.88 1145.02C1355.67 1152.83 1355.95 1226.69 1353.23 1235.77C1347.73 1254.14 1311.37 1275.88 1300.18 1267.49ZM1300.44 1226.73C1323.71 1221.47 1342.69 1205.56 1342.69 1191.32V1187.3L1332.61 1194.2C1317.22 1204.74 1301.13 1209.35 1279.11 1209.56C1264.46 1209.69 1259.21 1209.07 1249.69 1206.1C1235.6 1201.71 1225.54 1196.73 1219.62 1191.23C1217.18 1188.97 1214.85 1187.45 1214.43 1187.87C1212.51 1189.79 1216.25 1201.72 1220.42 1206.96C1236.36 1227.02 1266.39 1234.44 1300.44 1226.73ZM1295.06 1194.33C1319.92 1189.89 1337.76 1177.53 1340.98 1162.51C1342.41 1155.87 1342.29 1153.58 1340.31 1149.41C1332.27 1132.46 1307.53 1121.94 1275.91 1122.03C1240.2 1122.13 1215.53 1136.75 1215.53 1157.82C1215.53 1175.26 1233.64 1189.53 1261.77 1194.26C1277.34 1196.88 1280.68 1196.89 1295.06 1194.33ZM1267.48 1182.81C1260.88 1181.45 1252.75 1176.73 1252.75 1174.25C1252.75 1169.94 1256.41 1169.06 1265.93 1171.08C1271.05 1172.17 1276.8 1172.77 1278.72 1172.41C1288.19 1170.68 1290.02 1170.02 1289.16 1168.63C1288.65 1167.8 1285.31 1167.11 1281.73 1167.09C1259.49 1166.96 1246.59 1155.22 1255.81 1143.49C1257.49 1141.36 1262.74 1138.03 1267.47 1136.11C1275.97 1132.66 1276.2 1132.65 1285.73 1135.32C1300.65 1139.48 1304.2 1141.73 1303.63 1146.67C1303.08 1151.36 1302.26 1151.47 1288.1 1148.62C1278.99 1146.78 1269.73 1147.97 1268.68 1151.11C1267.89 1153.5 1271.96 1154.73 1285.9 1156.33C1300.97 1158.06 1305.47 1160.66 1305.47 1167.66C1305.47 1179.38 1286.85 1186.81 1267.48 1182.81ZM586.902 1221.01C586.378 1218.24 585.63 1214.34 585.242 1212.34C583.587 1203.85 579.048 1198.99 569.193 1195.14C563.879 1193.06 559.771 1190.62 560.065 1189.71C560.358 1188.8 563.688 1187.01 567.464 1185.73C580.63 1181.27 584.258 1177.2 586.822 1164.02C589.352 1151.02 594.07 1150.63 595.805 1163.29C597.693 1177.06 603.301 1183.33 615.61 1185.43C620.807 1186.32 622.401 1187.28 622.401 1189.5C622.401 1191.64 620.165 1193.17 613.967 1195.28C602.915 1199.04 598.908 1203.05 595.734 1213.53C591.633 1227.08 588.546 1229.69 586.902 1221.01ZM595.279 1191.55C597.87 1188.36 597.904 1187.82 595.675 1185.34C592.501 1181.82 590.188 1181.92 586.736 1185.73C584.027 1188.72 584.027 1188.94 586.736 1191.93C590.328 1195.9 591.789 1195.84 595.279 1191.55ZM233.343 1219.7C224.724 1212.91 161.656 1133.53 160.163 1127.58C158.656 1121.58 160.041 1116.76 163.403 1116.31C165.65 1116.01 168.855 1118.93 175.033 1126.93C213.003 1176.06 233.913 1201.8 234.978 1200.74C235.329 1200.38 235.023 1196.34 234.297 1191.75C233.109 1184.23 231.299 1181.33 216.062 1162.47C178.132 1115.53 173.706 1109.91 167.523 1100.8C160.621 1090.64 159.86 1087.88 163.194 1085.11C164.358 1084.15 180.232 1078.41 198.471 1072.36C235.8 1059.99 286.11 1041.07 318.343 1027.28C331.845 1021.51 341.169 1018.37 343.247 1018.89C345.073 1019.35 348.874 1022.93 351.693 1026.86C357.515 1034.96 410.034 1088.4 418.865 1095.2L424.67 1099.67L424.819 1120.14C424.901 1131.4 424.565 1141.26 424.072 1142.06C422.377 1144.8 391.326 1162.34 370.417 1172.36C342.902 1185.55 310.379 1198.45 270.605 1211.96C252.808 1218 238.074 1222.95 237.863 1222.95C237.651 1222.95 235.618 1221.48 233.343 1219.7ZM279.131 1194.44C316.718 1181.38 335.225 1173.86 364.208 1159.87C390.21 1147.33 405.732 1138.6 408.797 1134.81C410.597 1132.59 411.624 1120.6 410.014 1120.6C409.617 1120.6 403.162 1124.57 395.67 1129.43C363.13 1150.5 312.818 1172.11 260.708 1187.39L249.465 1190.69V1197.51C249.465 1201.27 249.731 1204.34 250.056 1204.34C250.381 1204.34 263.465 1199.89 279.131 1194.44ZM264.972 1170.81C300.2 1160.41 327.744 1150.07 349.483 1139.11C371.108 1128.2 403.204 1108.5 405.559 1104.69C406.127 1103.77 397.942 1094.67 387.218 1084.29C376.567 1073.99 361.205 1058.27 353.081 1049.36L338.311 1033.16L322.188 1040.33C301.949 1049.33 265.669 1063.8 239.386 1073.36C215.99 1081.87 181.236 1092.69 181.236 1091.46C181.236 1091 180.83 1091.03 180.335 1091.53C178.262 1093.6 191.492 1111.63 219.181 1144.48C227.735 1154.63 237.176 1165.93 240.161 1169.59C244.137 1174.46 246.418 1176.04 248.69 1175.48C250.396 1175.05 257.723 1172.96 264.972 1170.81ZM236.118 1145.03C212.676 1120.97 198.991 1102.23 202.386 1098.83C203.237 1097.98 213.307 1093.91 224.761 1089.78C236.216 1085.65 252.567 1079.34 261.095 1075.76C287.984 1064.46 327.409 1049.11 331.548 1048.33C335.01 1047.67 338.805 1050.87 360.726 1072.94C374.585 1086.89 385.907 1099.31 385.885 1100.54C385.841 1103.09 371.424 1114.22 356.191 1123.45C333.607 1137.15 296.47 1151.76 269.227 1157.66C260.947 1159.45 253.594 1160.92 252.888 1160.92C252.182 1160.92 244.636 1153.77 236.118 1145.03ZM272.841 1142.94C299.341 1136.15 339.563 1119.29 355.616 1108.25C367.944 1099.76 368.073 1100.49 351.239 1083.59C330.582 1062.86 330.29 1062.71 317.695 1066.99C312.151 1068.87 299.591 1073.96 289.783 1078.3C279.975 1082.64 261.483 1090.19 248.69 1095.07C235.897 1099.96 224.607 1104.6 223.602 1105.4C222.232 1106.48 222.513 1108.1 224.728 1111.85C231.975 1124.13 254.514 1145.41 260.275 1145.41C261.868 1145.41 267.522 1144.3 272.841 1142.94ZM289.796 1128.37C286.418 1124.99 286.405 1124.84 289.235 1122.01C290.829 1120.42 295.809 1118.42 300.303 1117.57C304.797 1116.71 309.963 1115.22 311.782 1114.25C318.077 1110.88 311.151 1109.51 300.375 1112C288.609 1114.72 280.242 1113.32 274.613 1107.69C270.197 1103.27 269.708 1097.49 273.29 1092.02C279.885 1081.95 307.765 1077.46 316.004 1085.14C320.41 1089.25 318.274 1091.08 309.055 1091.12C301.758 1091.14 289.219 1095.06 286.696 1098.1C283.764 1101.63 289.919 1102.29 300.509 1099.58C317.14 1095.32 328.549 1099.71 328.549 1110.36C328.549 1119.67 316.07 1128.7 300.188 1130.88C294.335 1131.68 292.716 1131.29 289.796 1128.37ZM820.42 1186.45C800.861 1183.03 785.43 1175.76 774.481 1164.81C763.729 1154.06 763.566 1153.31 763.009 1112.07C762.463 1071.62 763.681 1060.39 769.751 1049.92C777.135 1037.17 792.264 1027.13 811.521 1022.18C823.552 1019.09 854.765 1019.07 867.783 1022.14C890.062 1027.39 907.169 1039.27 914.808 1054.79C918.525 1062.34 918.579 1063.07 918.579 1105.1C918.579 1145.86 918.431 1148.02 915.221 1154.01C911.546 1160.88 901.594 1170.68 892.823 1176.07C875.823 1186.52 845.587 1190.86 820.42 1186.45ZM867.407 1170.72C879.785 1167.65 890.236 1161.8 897.608 1153.8C906.245 1144.43 908.731 1129.46 900.352 1137.28C895.359 1141.94 882.962 1147.81 871.283 1151.05C856.145 1155.25 826.316 1154.92 810.306 1150.36C796.461 1146.42 788.52 1142.69 781.552 1136.82L776.693 1132.73V1137.93C776.693 1154.9 800.692 1170.43 830.984 1173.07C846.374 1174.41 854.619 1173.88 867.407 1170.72ZM870.108 1135.9C888.69 1129.88 900.516 1120.29 903.754 1108.63C906.396 1099.12 905.873 1097.86 901.134 1102.34C885.184 1117.42 847.046 1125.59 819.336 1119.87C804.369 1116.79 788.653 1109.8 781.539 1103.07L776.307 1098.12L777.098 1105.6C778.884 1122.5 796.657 1133.8 830.966 1139.84C838.656 1141.19 860.606 1138.99 870.108 1135.9ZM860.74 1106.45C877.766 1102.82 897.85 1090.38 903.113 1080.21C910.464 1065.99 899.097 1048.55 876.266 1039C866.407 1034.88 864.585 1034.65 841.821 1034.6C814.717 1034.53 805.896 1036.38 793.199 1044.79C782.306 1052.01 777.456 1060.11 777.518 1070.98C777.574 1080.92 780.029 1084.99 791.191 1093.69C806.438 1105.57 837.829 1111.33 860.74 1106.45ZM834.067 1097.44C827.857 1096.19 819.903 1092.3 817.413 1089.3C816.172 1087.8 816.252 1086.52 817.712 1084.53C819.513 1082.06 820.832 1081.96 831.232 1083.51C839.758 1084.78 844.461 1084.76 849.313 1083.46C857.082 1081.37 856.457 1078.74 848.191 1078.74C830.108 1078.74 815.459 1071.46 815.459 1062.49C815.459 1056.49 822.804 1049.93 832.762 1047.03C841.147 1044.6 852.666 1044.32 852.672 1046.56C852.674 1047.2 854.138 1047.72 855.925 1047.72C860.261 1047.72 867.603 1053.09 868.629 1057.02C869.884 1061.82 865.289 1063.48 857.985 1060.88C850.077 1058.06 841.918 1058.03 835.408 1060.79C829.042 1063.48 830.535 1064.18 846.844 1066.14C861.922 1067.95 868.779 1071.64 869.436 1078.32C870.32 1087.31 866.35 1092 854.782 1095.64C843.814 1099.08 842.669 1099.18 834.067 1097.44ZM1062.05 1104.92C1055.25 1102.21 1052.71 1098.78 1052.71 1092.35C1052.71 1084.67 1054.72 1080.93 1060.43 1077.98C1067.29 1074.43 1071.11 1075.11 1076.9 1080.91C1080.7 1084.71 1082.17 1087.57 1082.17 1091.14C1082.17 1094.72 1080.7 1097.58 1076.9 1101.38C1071.44 1106.84 1068.58 1107.52 1062.05 1104.92ZM16.0822 1067.24C11.1929 1062.35 9.84474 1056.54 12.251 1050.73C14.8284 1044.51 19.4127 1041.52 26.3762 1041.52C36.7064 1041.52 43.1271 1053.39 38.4033 1063.76C34.8792 1071.49 22.2987 1073.46 16.0822 1067.24ZM1176.77 962.836C1149.03 960.434 1125.98 952.629 1105.43 938.677C1095.09 931.649 1077.97 914.766 1071.35 905.061C1031.81 847.042 1037.56 769.256 1084.83 722.738C1094.72 713.005 1114.51 699.536 1127.46 693.723C1158.83 679.646 1203.99 678.993 1237.01 692.139C1299.48 717.005 1334.89 783.47 1321.15 850.045C1311.67 895.962 1284.25 930.568 1241.12 951.052C1225.12 958.65 1194.08 964.335 1176.77 962.836ZM1204.68 946.866C1235.8 941.956 1262.59 926.997 1280.44 904.566C1310.04 867.357 1317.92 821.848 1302.45 777.286C1289.52 740.017 1255.7 709.49 1216.31 699.517C1199.38 695.232 1167.12 695.469 1151.51 699.995C1136.38 704.38 1118.4 713.357 1105.87 722.773C1087.15 736.852 1069.2 764.047 1062.76 788.109C1059.33 800.906 1058.02 829.606 1060.32 841.754C1068.57 885.529 1091.13 916.606 1128.01 935.006C1151.25 946.599 1179.08 950.905 1204.68 946.866ZM1161.26 933.043C1145.2 930.084 1120.99 917.281 1107.22 904.464C1100.21 897.935 1089.81 883.154 1083.8 871.172C1077.47 858.545 1072.97 837.839 1072.75 820.346C1072.11 769.405 1108.41 723.95 1159.38 711.901C1176.95 707.746 1204.41 709.394 1221.36 715.622C1238.33 721.852 1249.9 729.078 1262.14 741.071C1285.69 764.169 1296.51 790.079 1296.44 823.214C1296.38 852.582 1286.28 878.355 1266.54 899.486C1253.31 913.657 1239.51 922.741 1222.07 928.771C1210.19 932.88 1206.11 933.499 1188.4 933.887C1177.31 934.13 1165.1 933.75 1161.26 933.043ZM1178.46 910.163C1179.45 899.851 1181.64 895.757 1186.19 895.757C1189.91 895.757 1192.1 903.668 1191.11 913.537L1190.37 921.038L1197.13 920.103C1204.36 919.106 1222.79 913.658 1225.99 911.571C1227.45 910.619 1226.9 908.394 1223.7 902.389C1219.54 894.594 1219.52 894.411 1222.39 891.234C1226.69 886.481 1228.54 887.174 1234.34 895.717C1237.21 899.959 1240.06 903.448 1240.66 903.47C1242.78 903.548 1266.7 879.178 1266.62 877.018C1266.57 875.811 1263.26 872.729 1259.26 870.171C1251.36 865.111 1249.98 862.347 1253.19 857.956C1255.2 855.206 1255.56 855.227 1263.29 858.552C1267.69 860.447 1272.28 861.618 1273.49 861.155C1275.94 860.213 1280.03 848.884 1281.62 838.611C1282.89 830.356 1281.43 829.134 1270.25 829.102C1263.85 829.083 1261.82 828.45 1260.56 826.078C1258.48 822.199 1258.5 821.992 1261.39 819.109C1263.07 817.43 1266.75 816.672 1273.23 816.672H1282.64L1281.62 807.756C1280.49 797.958 1276.56 784.631 1274.39 783.293C1273.63 782.824 1270.37 783.73 1267.14 785.305C1262.61 787.518 1260.48 787.8 1257.79 786.547C1252.81 784.23 1253.42 782 1260.77 775.711C1266.65 770.676 1267.07 769.854 1265.34 766.673C1262.56 761.551 1251.18 749.424 1245.54 745.582L1240.66 742.253L1235.69 750C1230.45 758.161 1228.07 759.315 1224.74 755.302C1223.09 753.318 1223.07 751.636 1224.64 746.386C1228.74 732.639 1229.01 733.558 1219.95 730.187C1215.39 728.492 1208.52 726.621 1204.68 726.03C1200.84 725.44 1196.48 724.612 1194.99 724.19C1192.61 723.52 1192.27 724.618 1192.27 732.934C1192.27 744.291 1190.4 748.443 1185.29 748.443C1180.2 748.443 1178.32 744.294 1178.32 733.038C1178.32 724.767 1177.95 723.632 1175.31 723.632C1167.77 723.632 1145.47 730.271 1141.42 733.721C1141.16 733.936 1142.48 737.25 1144.35 741.086C1148.04 748.686 1147.58 755.161 1143.24 756.827C1139.86 758.126 1137.75 756.148 1133.55 747.733C1131.61 743.859 1129.41 740.69 1128.66 740.69C1126.73 740.69 1102.33 764.653 1102.33 766.551C1102.33 767.412 1105.83 770.493 1110.1 773.399C1118.47 779.097 1120.73 782.952 1117.78 786.509C1115.12 789.708 1111.77 789.302 1104.66 784.924C1101.25 782.823 1097.65 781.082 1096.67 781.056C1093.84 780.979 1087.01 802.873 1086.88 812.408C1086.83 816.492 1087.15 816.672 1094.48 816.672C1104.2 816.672 1110.09 818.88 1110.09 822.527C1110.09 826.975 1106.89 829.076 1100.08 829.099C1096.63 829.111 1092.16 829.56 1090.15 830.098C1086.85 830.983 1086.59 831.676 1087.48 837.442C1088.02 840.944 1089.92 848.232 1091.69 853.637C1095.22 864.371 1094.26 864.033 1107.22 859.098C1113.26 856.796 1114.83 856.685 1116.91 858.411C1121.43 862.164 1119.78 865.887 1111.64 870.32C1106.87 872.916 1103.88 875.591 1103.88 877.27C1103.88 880.706 1117.14 895.325 1125.52 901.133C1129 903.547 1132.03 905.243 1132.24 904.903C1132.46 904.563 1134.19 900.948 1136.1 896.869C1139.81 888.911 1143.13 886.569 1147.13 889.086C1150.9 891.464 1150.98 895.131 1147.42 902.485C1145.65 906.146 1144.2 909.873 1144.2 910.767C1144.2 913.679 1165.33 920.535 1172.89 920.075C1177.42 919.799 1177.56 919.54 1178.46 910.163ZM1177.91 835.668C1176.57 834.176 1174.88 830.631 1174.15 827.791C1173.08 823.621 1169.55 820.188 1155.8 809.958C1140.98 798.93 1138.77 796.708 1138.77 792.806C1138.77 783.418 1142.46 784.169 1163.25 797.785C1173.9 804.761 1184.01 810.47 1185.71 810.47C1187.41 810.47 1195.69 805.454 1204.11 799.324C1224.83 784.233 1244.86 771.703 1248.28 771.703C1249.82 771.703 1251.86 773.143 1252.8 774.902C1254.28 777.676 1253.62 778.963 1247.8 784.593C1244.11 788.165 1231.19 797.975 1219.09 806.395C1200.54 819.298 1196.93 822.467 1196.06 826.554C1193.91 836.751 1183.55 841.952 1177.91 835.668ZM1416.03 960.104C1411.86 957.185 1408.9 948.53 1410.25 943.184C1412.45 934.398 1425.89 929.827 1433.62 935.237C1437.97 938.287 1440.96 945.96 1439.72 950.907C1437.26 960.68 1424.13 965.779 1416.03 960.104ZM566.459 957.733C548.409 955.489 529.933 947.931 519.752 938.627C505.44 925.546 505.399 925.363 505.36 873.562L505.326 828.883L509.533 820.289C522.293 794.231 562.991 780.321 606.04 787.305C627.626 790.807 648.814 803.451 656.181 817.226C659.474 823.383 659.637 825.586 660.092 870.107C660.497 909.785 660.203 917.514 658.08 923.074C655.05 931.007 643.526 942.107 632.538 947.675C615.535 956.291 588.26 960.443 566.459 957.733ZM606.052 941.516C626.168 937.284 641.373 927.022 645.508 914.885C649.584 902.922 648.384 898.625 642.714 904.89C638.186 909.894 620.778 917.481 608.383 919.852C576.157 926.018 540.155 919.776 523.475 905.131L517.731 900.087V906.528C517.731 917.878 525.633 927.796 540.654 935.298C556.69 943.307 584.822 945.981 606.052 941.516ZM603.803 905.883C627.425 901.363 643.161 890.261 646.21 875.963C647.06 871.981 647.456 868.24 647.091 867.649C646.726 867.059 641.876 869.627 636.313 873.358C604.985 894.366 553.733 894.162 525.903 872.919C522.094 870.011 518.652 867.958 518.254 868.355C515.99 870.62 520.387 881.519 526.04 887.651C541.654 904.59 572.617 911.85 603.803 905.883ZM599.086 873.289C614.453 870.551 631.737 862.231 639.187 853.984C663.747 826.8 629.26 797.071 576.656 800.081C544.21 801.938 522.728 814.753 518.57 834.732C516.499 844.688 525.982 858.644 539.44 865.445C558.046 874.848 576.624 877.291 599.086 873.289ZM571.457 862.337C564.398 860.455 556.498 855.005 556.498 852.018C556.498 848.928 563.639 848.262 572.195 850.555C578.706 852.299 582.647 852.546 586.897 851.475C595.055 849.419 595.643 846.135 587.852 846.135C571.811 846.135 559.003 841.117 557.099 834.087C555.018 826.403 564.271 815.144 572.68 815.128C574.331 815.124 577.255 813.644 579.178 811.837L582.674 808.552L587.806 811.638C590.629 813.335 594.93 815.193 597.364 815.768C604.308 817.407 609.22 821.32 609.22 825.214C609.22 830.146 606.268 830.778 595.882 828.066C586.553 825.629 574.503 826.29 572.617 829.341C570.96 832.022 574.69 833.249 587.823 834.345C600.846 835.431 608.184 838.095 609.808 842.328C612.895 850.372 607.696 857.452 596.394 860.594C583.46 864.189 579.457 864.469 571.457 862.337ZM98.7728 937.872C83.8714 934.402 67.528 926.248 60.0198 918.539C49.7558 908 49.1715 904.635 49.7192 859.225C50.2586 814.497 50.2419 814.577 61.343 803.647C74.4465 790.745 95.4563 783.908 122.291 783.811C151.317 783.707 173.934 791.154 187.684 805.342C198.804 816.817 199.844 821.612 199.844 861.42C199.844 901.192 198.836 905.764 187.509 917.393C169.181 936.21 130.231 945.199 98.7728 937.872ZM140.677 924.489C154.939 921.979 167.576 916.854 173.649 911.117C180.113 905.012 185.888 895.341 185.888 890.624V886.211L179.421 891.747C168.428 901.156 145.161 908.085 124.385 908.135C103.903 908.185 79.5186 901.668 68.3229 893.152C65.495 891.001 62.7945 889.628 62.3217 890.1C60.2522 892.17 63.8801 901.979 68.8717 907.811C77.3527 917.719 99.5854 925.301 123.861 926.564C125.993 926.675 133.56 925.741 140.677 924.489ZM142.988 891.906C167.783 886.653 185.888 872.877 185.888 859.263V855.179L180.073 859.755C172.984 865.333 164.617 869.594 153.324 873.379C142.553 876.988 108.88 877.483 95.9491 874.223C86.7758 871.909 74.1917 866.106 68.2156 861.432C62.7866 857.187 61.9817 857.822 63.7851 864.927C69.0963 885.851 108.392 899.237 142.988 891.906ZM147.618 860.874C160.236 857.587 168.501 853.089 176.907 844.934C185.019 837.063 186.968 831.622 184.43 823.932C177.585 803.19 131.449 790.737 96.7244 800.258C69.1 807.832 57.7785 822.221 65.9293 839.398C70.1734 848.342 85.2727 857.791 100.599 861.094C112.833 863.731 137.086 863.617 147.618 860.874ZM108.211 850.274C103.011 847.525 101.376 845.763 101.376 842.909C101.376 838.798 99.9543 838.946 120.494 840.918C131.755 841.999 137.814 839.234 127.552 837.697C106.982 834.616 100.601 830.733 100.601 821.294C100.601 817.518 101.675 814.63 103.794 812.713C107.44 809.413 123.523 804.016 124.586 805.736C124.973 806.362 129.829 808.104 135.376 809.605C142.658 811.577 145.735 813.197 146.445 815.435C148.084 820.597 145.267 821.728 134.74 820.135C124.665 818.61 115.123 819.622 115.629 822.163C116.018 824.117 121.584 825.622 129.288 825.856C137.33 826.101 147.997 830.981 149.017 834.883C149.457 836.566 148.886 840.158 147.747 842.866C143.326 853.381 121.735 857.427 108.211 850.274ZM867.347 889.942C863.143 869.898 861.178 865.206 853.683 857.31C850.326 853.773 845.61 851.223 838.35 849.018C829.197 846.238 827.865 845.36 827.865 842.107C827.865 838.993 828.636 838.382 832.567 838.382C842.719 838.382 856.023 829.506 861.621 818.998C862.984 816.44 864.859 809.811 865.788 804.267C867.189 795.906 867.99 794.188 870.485 794.188C872.64 794.188 873.865 795.728 874.804 799.615C879.254 818.049 881.102 822.257 887.433 828.368C892.384 833.148 896.118 835.153 903.151 836.807C917.531 840.188 918.891 844.704 906.372 847.506C888.385 851.531 880.044 860.68 875.809 881.025C873.036 894.346 869.133 898.459 867.347 889.942ZM875.712 850.054C877.721 847.103 880.687 844.27 882.302 843.757C886.101 842.551 886.056 840.401 882.206 839.179C880.538 838.649 877.328 836.023 875.073 833.343C871.181 828.718 870.887 828.623 869.299 831.487C868.379 833.147 865.628 836.383 863.185 838.679C858.893 842.712 858.848 842.909 861.831 844.505C863.529 845.414 866.152 848.246 867.66 850.798C869.168 853.351 870.774 855.434 871.23 855.429C871.686 855.422 873.703 853.004 875.712 850.054ZM348.071 870.827C342.233 863.89 342.516 855.19 348.783 848.923C352.973 844.733 354.249 844.295 360.023 845.07C368.604 846.221 373.519 851.766 373.519 860.297C373.519 874.209 356.754 881.146 348.071 870.827ZM291.215 719.292C284.883 712.64 271.951 698.51 262.476 687.891C253.001 677.272 236.777 659.179 226.423 647.684L207.597 626.784L207.363 606.591C207.081 582.168 207.416 577.393 209.506 576.099C210.39 575.552 215.382 574.289 220.598 573.294C270.391 563.792 336.627 540.245 401.387 509.023C407.76 505.951 414.14 503.437 415.565 503.437C417.929 503.437 473.425 546.812 484.392 557.23C486.95 559.661 492.358 564.337 496.409 567.62L503.775 573.591V605.698C503.775 642.956 505.616 638.695 483.616 652.371C432.863 683.923 402.174 699.749 366.541 712.745C345.688 720.35 309.328 731.386 305.122 731.386C303.804 731.386 297.546 725.943 291.215 719.292ZM322.447 712.752C368.55 700.981 423.602 675.046 479.352 638.834C488.953 632.598 489.819 631.59 489.819 626.662C489.819 623.706 489.418 621.288 488.928 621.288C488.438 621.288 479.541 626.762 469.157 633.453C413.909 669.051 381.894 683.793 315.149 704.375C301.016 708.733 300.98 708.757 303.309 712.313C306.157 716.659 307.063 716.68 322.447 712.752ZM318.138 689.335C373.579 673.275 422.323 649.813 476.03 613.338C489.015 604.518 489.819 603.653 489.819 598.49V593.008L484.779 596.747C479.719 600.501 455.51 615.541 430.852 630.249C397.57 650.101 367.336 663.229 326.395 675.606C292.183 685.949 296.648 686.918 275.147 664.482C265.049 653.945 250.454 637.997 242.714 629.042C220.407 603.234 220.018 602.853 220.01 606.751C220.005 608.563 219.608 612.052 219.125 614.504C218.337 618.506 220.257 621.184 237.888 640.672C266.394 672.18 290.09 695.72 293.301 695.72C294.839 695.72 306.016 692.847 318.138 689.335ZM353.174 652.774C384.171 641.238 427.609 618.4 460.356 596.421C467.606 591.555 476.548 585.702 480.229 583.414C483.909 581.126 486.7 578.686 486.431 577.992C484.9 574.045 417.201 518.944 413.883 518.944C413.324 518.944 401.746 524.081 388.153 530.36C338.957 553.085 294.11 569.204 246.752 581.184C235.451 584.043 226.205 587.093 226.205 587.963C226.205 589.362 256.13 624.879 264.197 633.054C265.902 634.782 271.42 640.693 276.458 646.188C281.495 651.682 288.954 659.059 293.032 662.579L300.447 668.98L319.352 663.653C329.75 660.723 344.97 655.827 353.174 652.774ZM288.992 642.023C270.086 622.786 247.63 596.557 248.312 594.51C248.627 593.566 251.631 591.94 254.99 590.896C275.443 584.536 302.727 575.494 310.717 572.426C328.528 565.589 355.858 554.717 382.571 543.844C397.358 537.825 410.702 532.9 412.223 532.9C416.371 532.9 440.64 550.689 454.828 564.13L467.334 575.977L464.233 579.43C457.012 587.468 405.821 618.829 382.035 629.787C362.665 638.71 320.325 653.235 308.941 654.861C302.53 655.777 302.475 655.742 288.992 642.023ZM321.49 636.816C328.114 635.121 339.565 631.715 346.936 629.246C372.453 620.7 393.475 611.508 378.748 615.337C358.985 620.475 357.182 620.509 346.426 615.938C337.293 612.056 336.303 611.197 336.303 607.158C336.303 604.695 337.001 602.68 337.853 602.68C340.786 602.68 339.399 600.074 335.527 598.31C329.784 595.693 330.282 588.592 336.69 581.738C343.244 574.728 356.491 571.096 368.511 573.012C377.915 574.511 378.271 574.747 378.828 579.822C379.228 583.457 378.86 583.611 369.015 583.911C357.83 584.251 347.157 586.81 347.157 589.15C347.157 590.542 350.607 590.373 376.21 587.728C383.701 586.954 384.689 587.25 389.003 591.564C394.317 596.878 395.379 605.41 391.241 609.547C387.17 613.619 390.637 612.301 400.547 606.01C405.724 602.724 416.24 596.101 423.916 591.293C431.591 586.484 439.616 581.131 441.748 579.397L445.625 576.245L434.582 565.815C428.508 560.078 420.342 553.673 416.434 551.58L409.328 547.775L388.71 555.759C377.37 560.15 357.624 567.991 344.831 573.184C332.038 578.377 311.125 586.454 298.358 591.133C285.591 595.812 274.57 600.215 273.868 600.917C271.265 603.52 303.126 639.896 308.008 639.896C308.799 639.896 314.865 638.51 321.49 636.816ZM372.068 605.591C383.874 600.512 381.852 598.945 365.378 600.405C357.489 601.104 348.695 601.598 345.835 601.502C338.293 601.249 341.221 603.056 353.089 605.978C358.782 607.38 363.659 608.607 363.927 608.705C364.196 608.803 367.859 607.401 372.068 605.591ZM736.669 684.792C721.358 682.885 694.587 673.741 681.327 665.89C665.253 656.372 649.587 639.752 641.893 624.053C638.43 616.989 634.389 606.673 632.911 601.13C629.272 587.478 629.365 559.049 633.094 545.395C644.711 502.85 677.687 471.689 721.142 462.195C736.226 458.899 764.526 458.971 780.566 462.346C817.485 470.113 847.551 493.066 864.211 526.203C880.719 559.036 878.938 599.973 859.669 630.592C853.48 640.428 836.303 657.916 826.885 663.97C801.45 680.322 766.165 688.465 736.669 684.792ZM785.221 667.14C819.557 658.048 847.854 631.976 857.708 600.354C862.483 585.03 862.41 562.798 857.532 546.856C844.198 503.281 804.421 474.717 754.983 473.215C691.301 471.281 643.501 514.783 643.362 574.799C643.282 609.643 663.789 641.499 697.107 658.289C703.836 661.68 722.398 667.187 734.7 669.443C745.034 671.338 774.427 669.998 785.221 667.14ZM735.997 655.271C670.731 645.711 638.775 582.455 672.116 528.821C680.246 515.743 687.204 509.123 701.671 500.699C740.667 477.994 787.764 483.229 820.266 513.88C836.298 529 846.414 551.688 846.454 572.618C846.5 596.235 838.51 615.269 822.04 630.778C799.052 652.424 771.026 660.402 735.997 655.271ZM782.169 638.218C801.898 632.124 819.505 617.26 827.536 599.917C831.176 592.056 831.647 589.114 831.692 573.993C831.739 557.922 831.451 556.321 826.714 546.32C820.427 533.047 804.586 516.864 791.928 510.784C761.567 496.2 721.849 499.971 698.862 519.62C690.147 527.071 681.106 539.17 677.267 548.523C672.249 560.747 672.238 585.754 677.245 598.411C681.241 608.512 692.585 621.797 703.242 628.856C710.816 633.873 725.593 639.318 737.549 641.497C748.619 643.516 770.138 641.934 782.169 638.218ZM744.093 632.076C743.16 630.334 742.613 626.816 742.875 624.259C743.333 619.809 742.921 619.464 733.195 616.171C716.541 610.531 710.569 604.133 714.72 596.376C717.008 592.102 721.584 592.664 726.913 597.873C733.124 603.945 740.934 606.247 752.761 605.494C764.14 604.77 770.49 600.43 770.49 593.376C770.49 587.268 764.802 582.969 748.895 577.055C727.85 569.231 722.802 564.766 720.334 551.799C718.269 540.946 727.149 530.289 741.443 526.466C745.574 525.361 748.781 523.594 748.781 522.422C748.781 521.277 749.867 518.239 751.195 515.671C753.113 511.963 754.47 511.101 757.786 511.484C761.554 511.919 762.006 512.653 762.42 518.999C762.877 525.992 762.93 526.053 771.724 529.568C786.274 535.383 792.507 542.827 787.237 548.097C784.619 550.715 778.998 550.41 776.599 547.518C773.44 543.712 764.14 539.503 756.285 538.325C750.747 537.495 747.514 537.967 741.977 540.416C735.725 543.182 734.825 544.177 734.825 548.32C734.825 555.213 738.577 558.013 756.382 564.408C774.398 570.879 776.901 572.346 782.211 579.543C787.172 586.268 787.407 597.706 782.739 605.259C779.207 610.974 770.847 615.967 761.598 617.886C756.242 618.997 755.69 619.605 754.929 625.233C754.473 628.607 753.559 632.24 752.899 633.306C751.043 636.304 745.977 635.597 744.093 632.076ZM807.672 606.516C806.049 604.56 806.441 602.8 809.926 596.397C812.46 591.742 814.873 583.868 815.968 576.688C817.426 567.117 818.364 564.62 820.666 564.177C825.45 563.255 827.005 566.534 826.737 576.971C826.46 587.749 823.733 595.796 817.659 603.76C813.37 609.382 810.67 610.128 807.672 606.516ZM986.033 651.206C975.836 647.479 973.399 635.22 981.5 628.404C984.124 626.196 987.58 624.39 989.18 624.39C996.719 624.39 1003.09 630.782 1003.09 638.346C1003.09 647.681 994.372 654.255 986.033 651.206ZM34.9385 646.487C34.5439 645.847 33.46 641.205 32.53 636.171C29.3947 619.202 21.2928 610.283 5.53953 606.459C2.23543 605.657 1.30508 604.612 1.66286 602.104C2.01719 599.62 4.21266 598.138 10.5399 596.111C23.2834 592.029 29.4496 585.081 31.594 572.389C32.1653 569.007 33.3365 563.94 34.1965 561.129C36.413 553.885 39.4362 557.034 40.7155 567.919C41.8929 577.937 46.4209 587.698 51.4057 590.964C53.3238 592.221 59.6383 594.715 65.4378 596.506C78.9283 600.673 78.8034 603.45 64.9357 607.669C59.3921 609.356 53.5448 611.889 51.9417 613.298C48.0082 616.757 43.8143 626.846 41.5714 638.247C39.8955 646.765 37.1866 650.13 34.9385 646.487ZM40.125 611.479C40.125 610.349 41.8713 607.783 44.0056 605.778L47.8862 602.132L42.3552 597.066L36.8242 592L32.3679 596.952L27.9116 601.905L32.4676 605.506C34.9735 607.487 37.0237 610.104 37.0237 611.321C37.0237 612.539 37.7215 613.535 38.5743 613.535C39.4272 613.535 40.125 612.61 40.125 611.479ZM1310.23 555.822C1306.16 537.056 1299.24 528.488 1285.48 525.187C1271.83 521.912 1271 516.613 1283.88 514.906C1298.7 512.94 1307.01 503.52 1310.5 484.755C1311.49 479.481 1313.03 475.525 1314.11 475.525C1316.18 475.525 1317.88 478.94 1317.88 483.124C1317.88 489.112 1322.94 502.288 1326.87 506.532C1329.4 509.266 1334.73 512.209 1340.36 513.987C1353.18 518.034 1353.25 520.858 1340.62 525.059C1335.13 526.886 1329.54 529.598 1328.19 531.085C1324.66 534.992 1321.12 544.137 1318.9 555.109C1316.22 568.362 1313 568.627 1310.23 555.822ZM1316.33 528.367C1316.33 527.58 1317.95 524.963 1319.94 522.552L1323.55 518.169L1318.74 514.061L1313.93 509.954L1309.03 514.33L1304.14 518.707L1309.07 524.168C1314.04 529.676 1316.33 530.997 1316.33 528.367ZM1061.24 489.484C1035.54 485.637 1017.06 474.773 1009.84 459.255C1006.35 451.769 1006.22 450.079 1006.21 412.286C1006.19 370.032 1006.54 367.756 1014.82 356.901C1020.88 348.96 1035.09 341.004 1049.89 337.259C1060.86 334.486 1065.58 334.134 1081.4 334.906C1110.54 336.33 1128.34 342.921 1140.46 356.775C1149.92 367.589 1150.77 372.87 1150.15 416.6L1149.63 453.041L1145.3 460.405C1140.17 469.137 1127.47 479.167 1116 483.548C1107.17 486.92 1083.34 491.083 1074.42 490.811C1071.44 490.72 1065.5 490.123 1061.24 489.484ZM1102.09 473.001C1120.96 467.569 1132.51 458.782 1136.44 446.867C1137.47 443.752 1138 440.894 1137.62 440.516C1137.24 440.138 1133.67 442.318 1129.69 445.361C1115.62 456.105 1096.08 460.922 1072.07 459.562C1051.55 458.4 1038.81 454.299 1022.47 443.59L1018.08 440.714L1019.04 446.634C1019.57 449.89 1021.78 454.889 1023.96 457.743C1028.45 463.63 1043.81 471.782 1054.26 473.823C1066.47 476.207 1092.51 475.759 1102.09 473.001ZM1095.46 444.445C1107.15 442.389 1112.16 440.522 1121.39 434.774C1129.95 429.449 1138 418.721 1138 412.642C1138 408.602 1137.89 408.549 1134.51 410.985C1127.26 416.211 1109.76 424.479 1101.23 426.699C1090.02 429.62 1067.5 429.62 1053.71 426.699C1047.87 425.461 1037.83 421.613 1031.41 418.149C1024.98 414.685 1019.54 412.047 1019.3 412.287C1018.03 413.582 1023.61 425.335 1027.34 429.225C1039.63 442.057 1070.2 448.886 1095.46 444.445ZM1105.6 411.027C1116.07 407.721 1119.81 405.609 1126.62 399.166C1131.87 394.198 1135.56 389.154 1136.69 385.399C1138.27 380.132 1138.04 378.649 1134.66 372.077C1130.2 363.423 1122.36 357.461 1109.31 352.812C1097.41 348.572 1064.41 346.898 1053.11 349.961C1023.64 357.955 1011.46 378.574 1025.41 396.861C1030.4 403.401 1045.61 411.787 1055.52 413.459C1059.52 414.133 1069.56 414.767 1077.83 414.867C1090.06 415.015 1095.25 414.297 1105.6 411.027ZM1069.77 403.404C1059.7 400.218 1055.81 397.829 1055.81 394.822C1055.81 391.545 1063.56 389.722 1068.88 391.746C1072.4 393.085 1077.76 392.767 1084.14 390.841C1088.82 389.426 1085.41 387.138 1078.59 387.129C1064.01 387.109 1054.26 380.915 1054.26 371.662C1054.26 364.654 1061.43 360.155 1075.24 358.497C1079.18 358.024 1083.23 358.148 1084.23 358.774C1085.23 359.399 1087.31 360.107 1088.85 360.346C1094.51 361.228 1100.78 365.534 1100.78 368.539C1100.78 372.725 1095.17 373.831 1082.88 372.064C1075.28 370.971 1072.08 371.091 1070.1 372.543C1067.69 374.3 1067.8 374.553 1071.32 375.284C1073.45 375.726 1079.13 376.422 1083.94 376.831C1098.93 378.104 1106.02 384.163 1103.14 393.245C1102.05 396.664 1095.33 400.791 1087.6 402.785C1085.04 403.445 1081.55 404.351 1079.85 404.798C1078.14 405.245 1073.61 404.618 1069.77 403.404ZM54.8564 443.816C26.307 438.308 6.0484 424.869 1.45722 408.394C0.180531 403.813 -0.220573 385.7 0.110867 347.595C0.565896 295.282 0.704902 293.094 3.95966 287.013C14.3052 267.685 40.3171 256.461 75.015 256.353C107.389 256.251 134.223 268.213 143.93 287.074L147.896 294.781L148.34 349.166C148.708 394.347 148.396 404.477 146.493 409.03C143.135 417.067 131.502 429.28 122.579 434.137C105.681 443.334 75.0499 447.711 54.8564 443.816ZM94.7097 428.817C107.474 426.117 120.958 419.345 126.769 412.716C133.392 405.161 137.119 396.673 134.822 394.376C133.647 393.201 133.165 393.205 133.165 394.389C133.165 396.94 113.479 406.695 102.152 409.757C95.2169 411.632 86.5092 412.469 74.2397 412.44C52.7714 412.39 36.193 408.428 22.5789 400.096C17.6194 397.06 13.2533 394.884 12.8765 395.261C10.9335 397.204 14.8622 406.557 20.14 412.553C26.315 419.568 39.961 426.329 53.2986 428.982C62.7394 430.859 85.4865 430.769 94.7097 428.817ZM96.2604 396.239C106.507 394.054 119.072 388.583 126.027 383.278C131.946 378.763 137.004 369.587 135.596 365.918C134.777 363.783 134.303 363.8 131.208 366.078C124.058 371.34 108.501 377.965 98.1393 380.161C71.3352 385.839 37.0774 380.319 20.4592 367.644C14.451 363.061 13.7636 363.001 13.7636 367.056C13.7636 378.569 29.6864 391.143 49.8659 395.567C61.9255 398.21 85.4223 398.551 96.2604 396.239ZM101.824 364.663C120.494 358.766 131.949 349.007 134.743 336.622C135.876 331.597 134.501 329.448 132.364 332.905C130.672 335.643 107.989 346.286 99.0504 348.536C86.8971 351.595 58.7583 351.166 47.103 347.743C36.9986 344.776 20.8172 337.119 16.4773 333.251C13.9814 331.027 13.7636 331.109 13.7636 334.276C13.7636 340.75 21.2534 351.206 30.3057 357.37C46.9887 368.728 78.7154 371.963 101.824 364.663ZM97.5259 334.303C112.148 330.251 122.537 324.626 129.371 317.061C134.017 311.919 134.716 310.093 134.716 303.097C134.716 295.393 134.356 294.7 126.339 286.935C119.359 280.174 115.805 278.117 105.018 274.592C74.6502 264.671 31.8375 271.951 18.6168 289.285C12.498 297.307 12.8395 308.359 19.4646 316.724C33.0375 333.861 69.4945 342.071 97.5259 334.303ZM61.8344 323.108C54.0399 319.282 52.2574 315.341 57.1399 312.728C59.558 311.434 61.6895 311.462 65.4974 312.839C71.4343 314.986 87.1575 313.411 83.418 311.044C82.2078 310.278 78.3999 309.641 74.956 309.628C66.3253 309.595 55.3833 303.783 53.6194 298.295C51.1994 290.765 53.4295 286.503 61.8245 282.613C66.0244 280.668 70.5891 278.139 71.9684 276.994C74.0755 275.246 74.6967 275.269 75.857 277.14C76.6164 278.364 78.1557 279.378 79.2775 279.394C84.3727 279.464 94.4234 283.98 95.2451 286.569C96.9209 291.849 94.5446 293.009 84.0594 292.03C73.2765 291.023 64.0414 293.153 68.0896 295.713C69.34 296.504 72.4564 297.166 75.015 297.183C77.5737 297.201 82.3291 297.955 85.5828 298.859C101.315 303.227 101.595 317.851 86.068 324.204C77.9032 327.545 70.1604 327.195 61.8344 323.108ZM270.079 438.95C260.014 433.861 259.93 417.736 269.941 412.559C282.182 406.229 296.026 418.487 290.788 431.018C286.947 440.206 278.763 443.341 270.079 438.95ZM568.876 400.706C564.562 379.816 557.222 370.744 539.275 364.119C530.425 360.853 527.81 359.203 527.81 356.884C527.81 354.475 529.922 353.327 538.483 351.085C558.633 345.806 564.93 338.308 570.063 313.48C572.157 303.352 575.377 305.596 578.964 319.683C582.401 333.182 587.087 342.068 592.713 345.754C594.691 347.05 600.721 349.41 606.112 350.997C616.565 354.076 621.099 358.166 616.974 360.796C615.695 361.612 613.215 362.29 611.463 362.303C609.712 362.315 604.606 364.157 600.117 366.394C588.498 372.184 585.336 377.605 578.301 403.807C577.04 408.503 575.72 410.397 573.705 410.397C571.484 410.397 570.448 408.318 568.876 400.706ZM575.106 371.596C575.106 370.724 577.986 366.886 581.506 363.067C585.773 358.438 587.094 356.124 585.47 356.124C584.13 356.124 580.769 353.426 578.001 350.128L572.967 344.133L569.725 348.943C567.943 351.588 564.965 354.51 563.108 355.436C559.771 357.1 559.792 357.174 565.001 362.088C567.899 364.821 570.707 368.435 571.242 370.119C572.249 373.292 575.106 374.384 575.106 371.596ZM1398.14 386.323C1384.23 378.569 1388.68 357.674 1404.25 357.674C1411.57 357.674 1415.44 360.095 1418.03 366.278C1421.19 373.855 1420.77 377.186 1415.96 382.465C1410.83 388.09 1403.98 389.574 1398.14 386.323ZM830.966 316.653C774.508 296.631 723.772 260.915 687.773 215.852L676.675 201.959L677.194 173.208C677.479 157.395 678.28 143.865 678.975 143.142C680.816 141.222 783.169 100.263 786.125 100.263C787.566 100.263 792.902 106.688 798.721 115.426C818.512 145.152 838.994 163.036 873.626 180.828C887.738 188.079 912.929 197.19 929.434 201.014C944.068 204.404 944.165 204.572 944.165 226.612V245.893L933.698 254.237C904.37 277.617 863.367 309.586 856.161 314.69C846.768 321.342 844.654 321.507 830.966 316.653ZM875.809 282.196C930.689 240.106 930.209 240.535 930.209 233.609C930.209 228.156 928.305 225.307 926.849 228.581C924.735 233.339 857.395 285.624 846.838 290.706C842.103 292.985 841.079 292.918 830.988 289.668C811.49 283.388 780.79 267.047 762.06 252.979C740.935 237.112 715.365 211.933 701.241 193.09C695.563 185.516 690.76 179.5 690.568 179.721C690.375 179.942 689.801 183.641 689.291 187.941C688.42 195.295 688.711 196.178 694.176 202.791C731.662 248.155 767.135 274.479 821.662 297.395L842.596 306.194L847.248 303.363C849.807 301.806 862.659 292.281 875.809 282.196ZM852.158 270.558C869.086 259.365 918.776 219.713 921.598 215.146C922.025 214.455 914.529 211.376 904.94 208.302C859.597 193.767 824.969 170.331 796.517 134.924L781.452 116.175L736.429 134.19C708.627 145.315 691.406 153.004 691.406 154.294C691.406 155.443 695.216 161.915 699.874 168.676C729.794 212.111 763.009 242.514 803.054 263.12C810.17 266.782 837.103 278.304 838.977 278.489C839.545 278.545 845.477 274.976 852.158 270.558ZM822.956 260.762C790.801 249.762 759.972 227.308 735.658 197.18C722.633 181.042 710.014 162.192 710.014 158.875C710.014 157.616 711.933 155.693 714.278 154.602C725.762 149.261 752.524 138.275 764.264 134.081L777.422 129.381L782.872 136.054C802.312 159.852 814.627 171.165 837.169 185.933C848.238 193.185 876.005 207.568 891.815 214.238C900.942 218.088 901.294 221.403 893.123 226.561C889.783 228.669 886.612 231.105 886.075 231.974C885.237 233.329 874.101 241.862 856.552 254.596C849.645 259.609 841.805 263.383 837.291 263.868C835.092 264.105 828.641 262.707 822.956 260.762ZM845.942 244.984C858.172 238.42 875.456 226.061 876.67 223.01C877.173 221.747 876.125 220.584 874.004 220.053C867.223 218.353 839.325 203.072 825.539 193.505C809.115 182.109 792.932 168.08 782.12 155.867C777.856 151.05 773.502 146.711 772.445 146.226C769.845 145.031 728.622 161.55 728.622 163.786C728.622 166.067 738.99 180.917 748.292 191.959C765.039 211.839 783.998 227.749 801.912 236.956C808.751 240.47 832.533 250.493 834.312 250.611C834.874 250.648 840.107 248.116 845.942 244.984ZM800.728 227.517C792.12 223.565 781.838 215.162 778.782 209.582C775.65 203.863 775.554 202.902 777.532 197.18C780.187 189.504 784.18 186.13 792.216 184.772C797.502 183.879 800.213 184.609 810.432 189.676C824.577 196.69 829.415 202.594 829.415 212.837C829.415 218.653 828.712 220.044 823.923 223.697C818.011 228.206 806.395 230.119 800.728 227.517ZM812.746 214.058C814.238 213.531 815.444 212.31 815.425 211.343C815.338 206.914 804.182 197.956 798.753 197.956C797.18 197.956 794.558 198.932 792.926 200.126C790.271 202.067 790.183 202.717 792.092 206.284C794.328 210.461 805.81 217.12 808.481 215.788C809.334 215.363 811.253 214.584 812.746 214.058ZM330.875 304.023C307.053 300.552 284.111 291.524 263.124 277.363C232.457 256.668 210.672 220.355 204.613 179.826C199.85 147.971 206.752 111.522 222.505 85.3396C249.491 40.488 292.666 15.0715 342.505 14.6972C362.546 14.5468 369.532 15.4036 385.149 19.9279C446.368 37.6633 489.739 94.9572 489.951 158.372C490.049 187.7 483.338 211.525 467.923 236.573C448.51 268.119 418.165 290.723 382.504 300.203C370.861 303.298 341.042 305.505 330.875 304.023ZM365.266 289.33C371.937 288.414 382.347 286.012 388.4 283.994C442.92 265.807 482.735 203.161 475.728 146.588C472.159 117.768 459.805 91.1986 440.319 70.4354C411.791 40.0362 382.284 27.9314 340.179 29.3533C322.888 29.9373 318.01 30.7114 305.89 34.7955C269.332 47.1136 242.965 71.9473 227.808 108.336C214.465 140.37 213.37 172.804 224.55 204.778C231.836 225.615 249.718 249.761 268.276 263.824C282.596 274.675 304.092 284.441 321.186 287.863C338.09 291.247 348.726 291.601 365.266 289.33ZM326.999 275.574C304.169 271.308 280.284 258.619 264.197 242.211C240.411 217.951 229.543 188.689 231.344 153.762C232.397 133.334 235.185 122.241 243.426 105.691C262.983 66.4098 301.439 42.8887 346.106 42.8887C378.958 42.8887 402.005 52.8168 427.099 77.7788C440.173 90.7842 443.723 95.4115 449.106 106.466C458.86 126.498 461.03 136.338 461.077 160.74C461.122 184.471 459.387 192.236 449.473 212.687C435.375 241.769 409.497 263.43 378.146 272.392C365.273 276.072 338.559 277.734 326.999 275.574ZM339.404 253.105C339.404 241.013 341.377 236.722 346.938 236.722C352.122 236.722 352.627 237.906 353.216 251.454C353.438 256.571 353.932 261.07 354.314 261.453C355.757 262.897 377.038 258.281 383.03 255.225C387.82 252.781 389.021 251.423 388.162 249.418C381.824 234.62 381.546 228.969 387.156 228.969C390.173 228.969 394.389 233.021 398.854 240.211C400.311 242.557 402.283 244.476 403.238 244.476C406.383 244.476 421.985 230.004 426.478 222.919L430.885 215.97L425.861 213.857C419.916 211.358 413.836 205.97 413.836 203.201C413.836 202.118 415.37 200.158 417.246 198.845C420.41 196.629 421.237 196.785 428.739 201.019C437.587 206.012 437.792 205.942 442.147 196.405C444.977 190.208 448.763 170.339 447.378 168.954C446.872 168.448 442.781 167.765 438.288 167.438C427.282 166.635 426.242 166.124 426.242 161.525C426.242 156.747 430.947 154.537 441.117 154.537H448.038L447.122 147.171C446.144 139.311 444.471 132.915 440.645 122.408L438.262 115.865L431.379 119.899C425.609 123.28 423.885 123.654 420.717 122.211C418.638 121.264 416.938 119.489 416.938 118.267C416.938 116.14 422.771 110.582 428.57 107.184C431.113 105.694 431.136 105.23 428.879 100.866C426.361 95.9963 407.03 77.0034 404.592 77.0034C403.834 77.0034 401.582 79.9613 399.588 83.5765C395.579 90.8439 392.793 92.1469 388.295 88.8579C385.346 86.7014 385.344 86.5309 388.22 78.0706C390.643 70.9424 390.797 69.059 389.123 67.0412C386.37 63.7239 368.529 58.3954 360.175 58.3954H353.36L353.206 65.7611C352.977 76.6687 351.439 80.8033 347.396 81.3868C341.225 82.2775 339.404 79.116 339.404 67.5096C339.404 61.6439 338.768 56.8447 337.99 56.8447C329.428 56.8447 303.487 64.3435 301.624 67.3569C301.198 68.0472 302.21 71.6528 303.874 75.3694C307.301 83.0228 306.654 87.2159 301.811 88.753C299.291 89.5529 297.622 88.732 294.879 85.3434C292.893 82.8886 290.851 79.2837 290.342 77.3325C289.447 73.9015 289.283 73.8697 285.336 76.3649C279.626 79.9739 266.2 94.0443 263.473 99.2773C261.475 103.112 261.475 103.797 263.473 104.926C264.724 105.633 268.729 108.378 272.373 111.027C278.161 115.232 278.786 116.24 277.311 118.995C274.634 123.997 271.735 124.142 263.231 119.695C258.85 117.404 254.687 116.131 253.959 116.859C251.467 119.351 246.249 136.704 245.31 145.621L244.372 154.537H253.998C265.439 154.537 269.624 156.396 269.624 161.478C269.624 166.358 268.969 166.657 256.326 167.546L245.589 168.302L245.96 174.212C246.412 181.428 251.817 199.29 254.657 202.957C256.595 205.459 257.247 205.358 264.676 201.407L272.621 197.18L275.835 200.385C280.111 204.649 278.818 207.219 269.524 212.935L261.75 217.715L266.87 224.428C272.048 231.217 287.175 244.476 289.742 244.476C290.509 244.476 293.1 240.812 295.499 236.335C300.648 226.727 305.864 224.649 308.359 231.21C309.555 234.358 309.108 236.969 306.271 243.383C303.247 250.221 303.002 251.867 304.763 253.512C307.354 255.933 327.493 261.331 334.364 261.448L339.404 261.533V253.105ZM338.846 175.467C337.565 174.185 335.019 170.139 333.189 166.474C330.557 161.204 327.325 158.267 317.723 152.42C302.35 143.058 299.802 140.387 302.119 136.058C304.319 131.947 309.76 131.9 316.872 135.929C319.883 137.635 324.963 140.492 328.162 142.278C331.36 144.064 334.64 146.157 335.45 146.93C338.786 150.11 339.405 147.489 339.421 130.114C339.444 105.436 340.37 100.469 345.169 99.2648C352.305 97.4737 353.342 100.64 353.505 124.74C353.586 136.864 353.985 146.784 354.39 146.784C355.378 146.784 367.318 138.692 379.809 129.558C385.401 125.47 391.718 121.462 393.847 120.653C398.893 118.734 402.982 121.025 402.982 125.771C402.982 129.444 390.873 139.364 366.338 155.79C358.578 160.985 356.648 163.136 355.829 167.499C354.221 176.072 344.168 180.789 338.846 175.467ZM1296.94 288.603C1257.79 272.571 1226.22 254.026 1195.82 229.191C1178.28 214.863 1157.98 194.254 1154.19 186.932C1151.81 182.317 1153.36 174.696 1156.69 174.696C1157.63 174.696 1166.54 182.651 1176.5 192.375C1209.94 225.037 1231.15 240.609 1270.58 261.454C1284.83 268.988 1311.97 280.141 1316.05 280.141C1319.68 280.141 1350.33 261.255 1377.58 242.233C1405.08 223.033 1406.26 221.93 1406.26 215.518C1406.26 212.682 1405.88 210.361 1405.41 210.361C1404.94 210.361 1396.75 216.146 1387.19 223.216C1365.87 238.993 1337.77 258.393 1327.18 264.633L1319.29 269.287L1301.91 262.793C1255.48 245.437 1211.47 214.982 1177.9 176.972C1155.95 152.125 1151.57 144.106 1158.04 140.641C1162.54 138.234 1164.97 139.887 1172.3 150.332C1181.22 163.046 1211.51 193.345 1228.16 206.21C1249.9 223 1292.51 246.212 1312.7 252.257L1319.16 254.189L1334.41 243.965C1350.72 233.03 1359.75 226.567 1387.27 206.098C1403.76 193.831 1404.71 192.824 1404.71 187.638V182.152L1397.35 187.69C1374.88 204.587 1340.87 228.952 1332.7 234.008C1320.73 241.416 1315.47 241.458 1298.02 234.281C1249.02 214.138 1212.08 184.297 1173.66 133.834C1150.77 103.759 1152.71 107.133 1155.68 102.598C1157.08 100.461 1158.95 98.7128 1159.84 98.7128C1160.72 98.7128 1170.3 94.9517 1181.12 90.3548C1209.66 78.2353 1232.44 70.1588 1260.38 62.2588C1287.14 54.6926 1290.73 54.1637 1292.6 57.5078C1293.28 58.7253 1298.73 65.3873 1304.7 72.3122C1327.08 98.2743 1370.52 130.889 1412.47 153.224L1419.44 156.94L1418.9 192.567L1418.35 228.194L1413.47 233.071C1402.95 243.584 1322.79 295.67 1317.22 295.617C1315.45 295.601 1306.32 292.444 1296.94 288.603ZM1328.73 220.44C1332.98 217.455 1336.81 215.013 1337.26 215.013C1338.17 215.013 1376.62 186.996 1383.96 180.982C1386.62 178.804 1392 174.579 1395.92 171.594C1399.84 168.609 1403.07 165.42 1403.1 164.506C1403.14 163.593 1397.06 159.501 1389.59 155.414C1357.83 138.018 1328.86 116.145 1302.92 89.9653C1283.4 70.2681 1282.35 69.4586 1278.11 70.858C1275.67 71.6618 1259.03 77.1458 1241.12 83.0447C1205 94.9411 1175.21 107.361 1175.21 110.527C1175.21 114.629 1207.76 155.729 1220.72 168.001C1235.93 182.395 1256.29 196.98 1277.56 208.715C1294.34 217.976 1312.34 225.669 1317.5 225.787C1319.43 225.832 1324.48 223.425 1328.73 220.44ZM1300.01 206.561C1269.33 195.348 1251.61 184.166 1229.49 162.04C1214.81 147.357 1196.84 122.348 1196.42 116.014C1196.19 112.548 1197.3 111.321 1203.42 108.287C1214.17 102.949 1244.41 91.7032 1257.55 88.1539C1279.39 82.2527 1276.15 81.4381 1292.04 96.8381C1312.67 116.822 1330.84 131.369 1355.67 147.759C1379.92 163.774 1381.45 164.91 1381.45 166.889C1381.45 169.963 1344.21 199.527 1330.01 207.724C1320.85 213.006 1317.27 212.867 1300.01 206.561ZM1336.22 187.092C1353.56 175.076 1358.68 170.459 1357.65 167.764C1357.19 166.567 1350.67 161.447 1343.16 156.386C1328.77 146.686 1302.54 125.166 1284.84 108.524C1272.77 97.1854 1273.4 97.2617 1250.42 104.354C1226.75 111.658 1213.98 117.541 1213.98 121.142C1213.98 124.475 1232.17 147.637 1241.43 156.107C1251.42 165.231 1268.95 177.95 1278.33 182.877C1288.18 188.048 1311.96 196.168 1317.61 196.292C1321.51 196.377 1326.09 194.113 1336.22 187.092ZM1284.75 170.873C1276.01 167.757 1264.78 159.635 1260.78 153.537C1250.14 137.304 1259.82 122.183 1279.8 123.839C1290.49 124.726 1299.87 129.543 1309.76 139.221C1321.67 150.877 1322.36 158.116 1312.51 167.964C1307.9 172.574 1306.42 173.137 1299.04 173.077C1294.47 173.039 1288.04 172.048 1284.75 170.873ZM1303.12 158.627C1305.93 156.57 1305.92 156.375 1302.95 151.261C1299.34 145.036 1286.65 137.568 1279.61 137.516C1275.1 137.483 1269.81 140.71 1269.81 143.489C1269.81 145.938 1280.25 154.526 1286.86 157.516C1295.09 161.234 1299.17 161.513 1303.12 158.627ZM1038.23 161.146C1037.79 160.427 1036.33 155.129 1035 149.373C1033.66 143.617 1031.54 136.925 1030.29 134.502C1026.98 128.107 1019.42 122.296 1011.94 120.41C1001.5 117.777 998.174 115.958 998.716 113.174C999.061 111.398 1002.16 110.013 1008.81 108.656C1014.09 107.58 1020.5 105.152 1023.06 103.261C1028.07 99.5586 1033.16 89.3112 1034.95 79.3294C1037.22 66.6857 1040.73 64.6992 1042.51 75.048C1044.21 84.9262 1049.7 98.2524 1053.55 101.869C1055.56 103.763 1061.61 106.515 1066.98 107.986C1074.6 110.072 1076.75 111.307 1076.75 113.603C1076.75 115.801 1074.61 117.23 1068.3 119.251C1053.42 124.018 1048.4 131.259 1043.95 154.412C1042.71 160.883 1040.02 164.043 1038.23 161.146ZM1044.69 109.061C1042.28 106.65 1040.31 104.105 1040.31 103.405C1040.31 102.706 1037.68 104.679 1034.46 107.789L1028.61 113.444L1034.79 119.031L1040.97 124.617L1045.02 119.031L1049.07 113.444L1044.69 109.061ZM7.62136 149.592C4.19461 145.914 3.41407 137.679 6.02913 132.792C8.01486 129.082 17.4122 127.22 22.4863 129.532C30.5765 133.219 31.927 147.524 24.5572 151.468C19.4763 154.187 11.0308 153.252 7.62136 149.592ZM110.013 83.6884C109.11 80.4381 108.368 76.5298 108.363 75.0033C108.349 70.6123 102.627 60.5451 98.1375 57.0135C95.882 55.2394 90.1996 52.5783 85.5099 51.1C72.694 47.0602 72.5933 42.7416 85.2678 40.7149C97.2282 38.8023 107.005 25.9588 109.215 9.25571C111.033 -4.48518 116.254 -2.57459 118.492 12.6507C119.119 16.915 120.279 22.1485 121.07 24.2807C124.2 32.7194 136.127 41.3381 144.674 41.3381C148.433 41.3381 151.773 44.0173 151.773 47.0322C151.773 48.1171 147.887 50.1344 143.138 51.5151C133.959 54.1834 124.77 61.0275 122.842 66.6319C122.2 68.4984 120.596 74.2089 119.279 79.3221C116.316 90.8188 112.493 92.6204 110.013 83.6884ZM119.38 50.2544L124.636 45.2147L118.993 39.7334L113.35 34.2522L110.465 37.6055C104.078 45.028 103.946 46.2457 109.03 50.8753C111.643 53.2556 113.859 55.2236 113.953 55.2486C114.046 55.2736 116.489 53.0262 119.38 50.2544ZM598.366 61.9523C597.086 61.4846 594.47 59.6736 592.551 57.9277C587.578 53.4034 587.62 41.6829 592.625 36.9802C597.717 32.1966 604.667 31.1992 611.224 34.3109C617.823 37.4422 620.837 43.7712 619.393 51.4655C617.808 59.9154 607.228 65.1919 598.366 61.9523ZM1393.51 49.8595C1388.04 46.7837 1386.11 42.9947 1386.11 35.3752C1386.11 27.1562 1392.73 21.1794 1401.85 21.1794C1420.91 21.1794 1422.85 49.396 1403.94 51.5352C1400.05 51.9747 1396.16 51.349 1393.51 49.8595Z" fill="black" fill-opacity="0.1"/>
</svg>
