<svg width="1440" height="1024" viewBox="0 0 1440 1024" fill="none" xmlns="http://www.w3.org/2000/svg">
<path d="M0 128H1440" stroke="white" stroke-opacity="0.1"/>
<path d="M0 256H1440" stroke="white" stroke-opacity="0.1"/>
<path d="M0 384H1440" stroke="white" stroke-opacity="0.1"/>
<path d="M0 512H1440" stroke="white" stroke-opacity="0.1"/>
<path d="M0 640H1440" stroke="white" stroke-opacity="0.1"/>
<path d="M0 768H1440" stroke="white" stroke-opacity="0.1"/>
<path d="M0 896H1440" stroke="white" stroke-opacity="0.1"/>
<path d="M180 0V1024" stroke="white" stroke-opacity="0.1"/>
<path d="M360 0V1024" stroke="white" stroke-opacity="0.1"/>
<path d="M540 0V1024" stroke="white" stroke-opacity="0.1"/>
<path d="M720 0V1024" stroke="white" stroke-opacity="0.1"/>
<path d="M900 0V1024" stroke="white" stroke-opacity="0.1"/>
<path d="M1080 0V1024" stroke="white" stroke-opacity="0.1"/>
<path d="M1260 0V1024" stroke="white" stroke-opacity="0.1"/>
<path d="M200 230C216.569 230 230 216.569 230 200C230 183.431 216.569 170 200 170C183.431 170 170 183.431 170 200C170 216.569 183.431 230 200 230Z" stroke="white" stroke-opacity="0.1" stroke-width="2"/>
<path d="M200 212C206.627 212 212 206.627 212 200C212 193.373 206.627 188 200 188C193.373 188 188 193.373 188 200C188 206.627 193.373 212 200 212Z" stroke="white" stroke-opacity="0.1" stroke-width="1.5"/>
<path d="M170 200H230" stroke="white" stroke-opacity="0.1" stroke-width="1.5"/>
<path d="M200 170V230" stroke="white" stroke-opacity="0.1" stroke-width="1.5"/>
<path d="M840 516C859.882 516 876 499.882 876 480C876 460.118 859.882 444 840 444C820.118 444 804 460.118 804 480C804 499.882 820.118 516 840 516Z" stroke="white" stroke-opacity="0.1" stroke-width="2.4"/>
<path d="M840 494.4C847.953 494.4 854.4 487.953 854.4 480C854.4 472.047 847.953 465.6 840 465.6C832.047 465.6 825.6 472.047 825.6 480C825.6 487.953 832.047 494.4 840 494.4Z" stroke="white" stroke-opacity="0.1" stroke-width="1.8"/>
<path d="M804 480H876" stroke="white" stroke-opacity="0.1" stroke-width="1.8"/>
<path d="M840 444V516" stroke="white" stroke-opacity="0.1" stroke-width="1.8"/>
<path d="M1080 297C1094.91 297 1107 284.912 1107 270C1107 255.088 1094.91 243 1080 243C1065.09 243 1053 255.088 1053 270C1053 284.912 1065.09 297 1080 297Z" stroke="white" stroke-opacity="0.1" stroke-width="1.8"/>
<path d="M1080 280.8C1085.96 280.8 1090.8 275.965 1090.8 270C1090.8 264.035 1085.96 259.2 1080 259.2C1074.04 259.2 1069.2 264.035 1069.2 270C1069.2 275.965 1074.04 280.8 1080 280.8Z" stroke="white" stroke-opacity="0.1" stroke-width="1.35"/>
<path d="M1053 270H1107" stroke="white" stroke-opacity="0.1" stroke-width="1.35"/>
<path d="M1080 243V297" stroke="white" stroke-opacity="0.1" stroke-width="1.35"/>
<path d="M550 913C568.225 913 583 898.225 583 880C583 861.775 568.225 847 550 847C531.775 847 517 861.775 517 880C517 898.225 531.775 913 550 913Z" stroke="white" stroke-opacity="0.1" stroke-width="2.2"/>
<path d="M550 893.2C557.29 893.2 563.2 887.29 563.2 880C563.2 872.71 557.29 866.8 550 866.8C542.71 866.8 536.8 872.71 536.8 880C536.8 887.29 542.71 893.2 550 893.2Z" stroke="white" stroke-opacity="0.1" stroke-width="1.65"/>
<path d="M517 880H583" stroke="white" stroke-opacity="0.1" stroke-width="1.65"/>
<path d="M550 847V913" stroke="white" stroke-opacity="0.1" stroke-width="1.65"/>
<path d="M410 150H390C386.686 150 384 152.686 384 156V184C384 187.314 386.686 190 390 190H410C413.314 190 416 187.314 416 184V156C416 152.686 413.314 150 410 150Z" stroke="white" stroke-opacity="0.1" stroke-width="2"/>
<path d="M390 150V134C390 131.348 391.054 128.804 392.929 126.929C394.804 125.054 397.348 124 400 124C402.652 124 405.196 125.054 407.071 126.929C408.946 128.804 410 131.348 410 134V150" stroke="white" stroke-opacity="0.1" stroke-width="2"/>
<path d="M910 600H890C886.686 600 884 602.686 884 606V634C884 637.314 886.686 640 890 640H910C913.314 640 916 637.314 916 634V606C916 602.686 913.314 600 910 600Z" stroke="white" stroke-opacity="0.1" stroke-width="2"/>
<path d="M890 600V584C890 581.348 891.054 578.804 892.929 576.929C894.804 575.054 897.348 574 900 574C902.652 574 905.196 575.054 907.071 576.929C908.946 578.804 910 581.348 910 584V600" stroke="white" stroke-opacity="0.1" stroke-width="2"/>
<path d="M1110 750H1090C1086.69 750 1084 752.686 1084 756V784C1084 787.314 1086.69 790 1090 790H1110C1113.31 790 1116 787.314 1116 784V756C1116 752.686 1113.31 750 1110 750Z" stroke="white" stroke-opacity="0.1" stroke-width="2"/>
<path d="M1090 750V734C1090 731.348 1091.05 728.804 1092.93 726.929C1094.8 725.054 1097.35 724 1100 724C1102.65 724 1105.2 725.054 1107.07 726.929C1108.95 728.804 1110 731.348 1110 734V750" stroke="white" stroke-opacity="0.1" stroke-width="2"/>
<path d="M260 500H240C236.686 500 234 502.686 234 506V534C234 537.314 236.686 540 240 540H260C263.314 540 266 537.314 266 534V506C266 502.686 263.314 500 260 500Z" stroke="white" stroke-opacity="0.1" stroke-width="2"/>
<path d="M240 500V484C240 481.348 241.054 478.804 242.929 476.929C244.804 475.054 247.348 474 250 474C252.652 474 255.196 475.054 257.071 476.929C258.946 478.804 260 481.348 260 484V500" stroke="white" stroke-opacity="0.1" stroke-width="2"/>
<path d="M600 258C604.418 258 608 254.418 608 250C608 245.582 604.418 242 600 242C595.582 242 592 245.582 592 250C592 254.418 595.582 258 600 258Z" fill="white" fill-opacity="0.1"/>
<path d="M594 250H606" stroke="white" stroke-opacity="0.1"/>
<path d="M800 708C804.418 708 808 704.418 808 700C808 695.582 804.418 692 800 692C795.582 692 792 695.582 792 700C792 704.418 795.582 708 800 708Z" fill="white" fill-opacity="0.1"/>
<path d="M794 700H806" stroke="white" stroke-opacity="0.1"/>
<path d="M1300 358C1304.42 358 1308 354.418 1308 350C1308 345.582 1304.42 342 1300 342C1295.58 342 1292 345.582 1292 350C1292 354.418 1295.58 358 1300 358Z" fill="white" fill-opacity="0.1"/>
<path d="M1294 350H1306" stroke="white" stroke-opacity="0.1"/>
<path d="M400 858C404.418 858 408 854.418 408 850C408 845.582 404.418 842 400 842C395.582 842 392 845.582 392 850C392 854.418 395.582 858 400 858Z" fill="white" fill-opacity="0.1"/>
<path d="M394 850H406" stroke="white" stroke-opacity="0.1"/>
<path d="M512 194H488V206H512V194Z" stroke="white" stroke-opacity="0.1"/>
<path d="M500 203C501.657 203 503 201.657 503 200C503 198.343 501.657 197 500 197C498.343 197 497 198.343 497 200C497 201.657 498.343 203 500 203Z" fill="white" fill-opacity="0.1"/>
<path d="M1212 594H1188V606H1212V594Z" stroke="white" stroke-opacity="0.1"/>
<path d="M1200 603C1201.66 603 1203 601.657 1203 600C1203 598.343 1201.66 597 1200 597C1198.34 597 1197 598.343 1197 600C1197 601.657 1198.34 603 1200 603Z" fill="white" fill-opacity="0.1"/>
<path d="M912 244H888V256H912V244Z" stroke="white" stroke-opacity="0.1"/>
<path d="M900 253C901.657 253 903 251.657 903 250C903 248.343 901.657 247 900 247C898.343 247 897 248.343 897 250C897 251.657 898.343 253 900 253Z" fill="white" fill-opacity="0.1"/>
<path d="M312 694H288V706H312V694Z" stroke="white" stroke-opacity="0.1"/>
<path d="M300 703C301.657 703 303 701.657 303 700C303 698.343 301.657 697 300 697C298.343 697 297 698.343 297 700C297 701.657 298.343 703 300 703Z" fill="white" fill-opacity="0.1"/>
<path d="M400 104C402.209 104 404 102.209 404 100C404 97.7909 402.209 96 400 96C397.791 96 396 97.7909 396 100C396 102.209 397.791 104 400 104Z" fill="white" fill-opacity="0.1"/>
<path d="M600 404C602.209 404 604 402.209 604 400C604 397.791 602.209 396 600 396C597.791 396 596 397.791 596 400C596 402.209 597.791 404 600 404Z" fill="white" fill-opacity="0.1"/>
<path d="M900 704C902.209 704 904 702.209 904 700C904 697.791 902.209 696 900 696C897.791 696 896 697.791 896 700C896 702.209 897.791 704 900 704Z" fill="white" fill-opacity="0.1"/>
<path d="M1100 504C1102.21 504 1104 502.209 1104 500C1104 497.791 1102.21 496 1100 496C1097.79 496 1096 497.791 1096 500C1096 502.209 1097.79 504 1100 504Z" fill="white" fill-opacity="0.1"/>
<path d="M1300 254C1302.21 254 1304 252.209 1304 250C1304 247.791 1302.21 246 1300 246C1297.79 246 1296 247.791 1296 250C1296 252.209 1297.79 254 1300 254Z" fill="white" fill-opacity="0.1"/>
<path d="M200 604C202.209 604 204 602.209 204 600C204 597.791 202.209 596 200 596C197.791 596 196 597.791 196 600C196 602.209 197.791 604 200 604Z" fill="white" fill-opacity="0.1"/>
</svg>
