<svg width="250" height="250" viewBox="0 0 250 250" fill="none" xmlns="http://www.w3.org/2000/svg">
<path d="M125 0C91.8479 0 60.0537 13.1696 36.6116 36.6117C13.1696 60.0537 0 91.8479 0 125C0 158.152 13.1696 189.946 36.6116 213.388C60.0537 236.83 91.8479 250 125 250C158.152 250 189.946 236.83 213.388 213.388C236.83 189.946 250 158.152 250 125C250 91.8479 236.83 60.0537 213.388 36.6117C189.946 13.1696 158.152 0 125 0ZM125 22.0588C152.302 22.0588 178.485 32.9044 197.79 52.2096C217.096 71.5148 227.941 97.6983 227.941 125C227.941 152.302 217.096 178.485 197.79 197.79C178.485 217.096 152.302 227.941 125 227.941C97.6983 227.941 71.5148 217.096 52.2096 197.79C32.9044 178.485 22.0588 152.302 22.0588 125C22.0588 97.6983 32.9044 71.5148 52.2096 52.2096C71.5148 32.9044 97.6983 22.0588 125 22.0588Z" fill="url(#paint0_linear_86_14)"/>
<path d="M125 69.8529C110.374 69.8529 96.3473 75.663 86.0052 86.0051C75.6631 96.3472 69.853 110.374 69.853 125C69.853 139.626 75.6631 153.653 86.0052 163.995C96.3473 174.337 110.374 180.147 125 180.147C132.242 180.147 139.413 178.721 146.104 175.949C152.795 173.178 158.874 169.116 163.995 163.995C169.116 158.874 173.178 152.795 175.949 146.104C178.721 139.413 180.147 132.242 180.147 125C180.147 117.758 178.721 110.587 175.949 103.896C173.178 97.2053 169.116 91.126 163.995 86.0051C158.874 80.8842 152.795 76.8221 146.104 74.0507C139.413 71.2793 132.242 69.8529 125 69.8529ZM125 88.2353C134.751 88.2353 144.102 92.1087 150.997 99.0034C157.891 105.898 161.765 115.249 161.765 125C161.765 134.751 157.891 144.102 150.997 150.997C144.102 157.891 134.751 161.765 125 161.765C115.249 161.765 105.898 157.891 99.0035 150.997C92.1088 144.102 88.2354 134.751 88.2354 125C88.2354 115.249 92.1088 105.898 99.0035 99.0034C105.898 92.1087 115.249 88.2353 125 88.2353Z" fill="url(#paint1_linear_86_14)"/>
<path d="M79.2607 90.166L90.1596 79.2718C90.5965 78.8351 90.5966 78.1269 90.1599 77.69L65.7505 53.27C65.3137 52.8331 64.6055 52.8329 64.1686 53.2697L53.2698 64.1638C52.8328 64.6006 52.8327 65.3088 53.2694 65.7457L77.6789 90.1657C78.1156 90.6026 78.8238 90.6027 79.2607 90.166Z" fill="url(#paint2_linear_86_14)"/>
<path d="M186.614 196.048L197.513 185.154C197.95 184.717 197.95 184.009 197.513 183.572L173.103 159.152C172.667 158.715 171.959 158.715 171.522 159.152L160.623 170.046C160.186 170.483 160.186 171.191 160.622 171.628L185.032 196.048C185.469 196.485 186.177 196.485 186.614 196.048Z" fill="url(#paint3_linear_86_14)"/>
<path d="M160.623 79.261L171.517 90.1598C171.954 90.5967 172.662 90.5969 173.099 90.1602L197.519 65.7507C197.956 65.314 197.956 64.6058 197.519 64.1688L186.625 53.27C186.188 52.8331 185.48 52.8329 185.043 53.2697L160.623 77.6791C160.186 78.1159 160.186 78.8241 160.623 79.261Z" fill="url(#paint4_linear_86_14)"/>
<path d="M53.2697 186.614L64.1638 197.513C64.6006 197.95 65.3088 197.95 65.7457 197.513L90.1657 173.104C90.6026 172.667 90.6027 171.959 90.166 171.522L79.2718 160.623C78.8351 160.186 78.1269 160.186 77.69 160.623L53.27 185.032C52.8331 185.469 52.833 186.177 53.2697 186.614Z" fill="url(#paint5_linear_86_14)"/>
<defs>
<linearGradient id="paint0_linear_86_14" x1="39.5" y1="427.5" x2="162.5" y2="15" gradientUnits="userSpaceOnUse">
<stop/>
<stop offset="1" stop-color="#B1B1B1"/>
</linearGradient>
<linearGradient id="paint1_linear_86_14" x1="87.2795" y1="258.456" x2="141.544" y2="76.4706" gradientUnits="userSpaceOnUse">
<stop/>
<stop offset="1" stop-color="#B1B1B1"/>
</linearGradient>
<linearGradient id="paint2_linear_86_14" x1="44.5341" y1="35.9885" x2="57.2884" y2="90.6299" gradientUnits="userSpaceOnUse">
<stop/>
<stop offset="1" stop-color="#B1B1B1"/>
</linearGradient>
<linearGradient id="paint3_linear_86_14" x1="151.887" y1="141.871" x2="164.641" y2="196.512" gradientUnits="userSpaceOnUse">
<stop/>
<stop offset="1" stop-color="#B1B1B1"/>
</linearGradient>
<linearGradient id="paint4_linear_86_14" x1="214.8" y1="44.5343" x2="160.159" y2="57.2886" gradientUnits="userSpaceOnUse">
<stop/>
<stop offset="1" stop-color="#B1B1B1"/>
</linearGradient>
<linearGradient id="paint5_linear_86_14" x1="107.447" y1="151.887" x2="52.8058" y2="164.642" gradientUnits="userSpaceOnUse">
<stop/>
<stop offset="1" stop-color="#B1B1B1"/>
</linearGradient>
</defs>
</svg>
